<svg id="svg" version="1.1" xmlns="http://www.w3.org/2000/svg" xmlns:xlink="http://www.w3.org/1999/xlink" width="400" height="372.65238879736404" viewBox="0, 0, 400,372.65238879736404"><g id="svgg"><path id="path0" d="M79.572 3.975 C 57.095 5.312,34.085 8.767,14.898 13.688 C 11.040 14.677,7.815 15.486,7.731 15.486 C 7.647 15.486,7.578 76.737,7.578 151.600 C 7.578 260.359,7.661 287.682,7.990 287.551 C 8.217 287.462,12.035 285.800,16.474 283.858 C 29.956 277.963,45.763 272.158,48.333 272.158 C 48.686 272.158,48.764 279.146,48.764 310.708 C 48.764 337.085,48.872 349.259,49.106 349.259 C 49.294 349.259,53.148 348.596,57.671 347.787 C 89.399 342.109,116.595 341.398,144.975 345.503 C 169.880 349.105,196.501 357.650,212.243 367.096 C 215.891 369.284,216.267 369.439,216.919 369.018 C 249.281 348.125,282.517 338.516,322.241 338.568 C 346.297 338.599,364.614 341.444,384.568 348.248 C 388.857 349.710,392.452 350.906,392.558 350.906 C 392.664 350.906,392.751 277.232,392.751 187.187 L 392.751 23.468 386.903 21.434 C 335.331 3.499,269.359 4.033,204.613 22.911 C 201.079 23.942,197.855 24.859,197.449 24.951 C 196.978 25.057,195.783 24.635,194.154 23.789 C 165.386 8.837,122.507 1.422,79.572 3.975 M114.662 25.066 C 144.356 26.911,169.546 33.744,190.328 45.591 L 194.659 48.060 198.400 46.740 C 210.646 42.421,232.051 37.217,250.247 34.136 C 289.724 27.450,328.128 27.731,358.814 34.931 C 363.124 35.942,371.378 38.155,371.575 38.352 C 371.742 38.518,371.699 322.315,371.533 322.482 C 371.456 322.559,369.489 322.244,367.163 321.781 C 316.022 311.623,263.773 318.883,221.390 342.035 C 215.082 345.480,216.092 345.287,212.866 343.665 C 177.112 325.689,122.995 318.027,74.465 324.070 C 72.381 324.329,70.416 324.543,70.099 324.544 C 69.554 324.547,69.522 322.972,69.522 296.072 L 69.522 267.598 70.428 267.416 C 75.305 266.441,86.041 265.544,95.254 265.342 L 104.346 265.143 104.561 258.025 C 104.679 254.109,104.776 249.364,104.777 247.480 L 104.778 244.053 97.117 244.279 C 87.149 244.572,74.283 245.561,70.428 246.330 L 69.522 246.510 69.522 218.042 L 69.522 189.574 59.336 185.561 C 53.734 183.354,49.064 181.549,48.957 181.549 C 48.851 181.549,48.764 197.037,48.764 215.968 L 48.764 250.386 47.364 250.748 C 41.485 252.266,31.346 255.258,28.891 256.200 C 28.371 256.400,28.336 249.286,28.336 144.209 C 28.336 37.634,28.365 31.996,28.913 31.829 C 29.230 31.733,32.232 31.140,35.585 30.511 C 62.838 25.403,89.996 23.533,114.662 25.066 M310.631 219.030 L 300.504 227.183 300.499 242.052 L 300.494 256.922 298.370 257.455 C 269.518 264.703,239.143 280.370,220.451 297.647 C 218.742 299.226,217.185 300.457,216.991 300.382 C 216.798 300.306,215.008 299.098,213.015 297.696 C 190.957 282.188,165.862 268.732,143.245 260.286 L 137.727 258.225 137.719 246.163 L 137.712 234.102 127.570 228.583 C 121.991 225.548,117.324 223.064,117.198 223.064 C 117.072 223.064,116.969 234.539,116.969 248.564 L 116.969 274.063 119.687 274.782 C 147.889 282.239,179.694 298.804,211.671 322.691 C 220.299 329.136,220.904 329.528,221.337 328.951 C 221.590 328.613,223.073 326.557,224.631 324.382 C 239.906 303.059,273.799 284.310,313.344 275.309 C 317.059 274.463,320.358 273.695,320.675 273.601 C 321.285 273.422,321.614 210.870,321.005 210.875 C 320.869 210.876,316.201 214.546,310.631 219.030 " stroke="none" fill="#74a434" fill-rule="evenodd"></path><path id="path1" d="M101.483 56.362 C 80.792 58.129,64.462 62.489,51.819 69.619 L 48.778 71.334 48.771 107.500 L 48.764 143.666 49.835 143.225 C 50.424 142.983,55.095 141.090,60.214 139.020 L 69.521 135.255 69.522 109.696 L 69.522 84.136 73.064 82.939 C 105.930 71.835,152.829 75.950,199.853 94.064 C 204.117 95.707,340.694 157.846,340.688 158.141 C 340.684 158.323,215.499 235.478,214.923 235.653 C 214.564 235.762,87.315 166.038,87.315 165.733 C 87.315 165.624,109.741 155.991,137.150 144.326 C 164.559 132.661,187.300 122.979,187.685 122.810 C 188.255 122.559,198.429 126.862,242.709 146.080 C 272.588 159.048,297.225 169.702,297.457 169.755 C 297.836 169.842,306.356 151.006,306.043 150.772 C 305.795 150.587,189.256 100.058,188.785 99.931 C 188.227 99.781,39.777 162.877,39.626 163.328 C 39.556 163.538,209.707 257.206,214.507 259.600 C 215.408 260.049,216.657 259.296,293.461 212.008 C 336.382 185.582,371.610 163.803,371.745 163.611 C 371.880 163.419,371.954 160.085,371.910 156.203 L 371.829 149.143 291.763 112.648 C 215.350 77.818,207.653 74.424,196.211 70.518 C 163.755 59.437,128.009 54.095,101.483 56.362 " stroke="none" fill="#0c4ca3" fill-rule="evenodd"></path><path id="path2" d="" stroke="none" fill="#787850" fill-rule="evenodd"></path><path id="path3" d="" stroke="none" fill="#787850" fill-rule="evenodd"></path><path id="path4" d="" stroke="none" fill="#787850" fill-rule="evenodd"></path></g></svg>